<?xml version="1.0" standalone="no"?><!DOCTYPE svg PUBLIC "-//W3C//DTD SVG 1.1//EN" "http://www.w3.org/Graphics/SVG/1.1/DTD/svg11.dtd"><svg t="1747132025923" class="icon" viewBox="0 0 1024 1024" version="1.1" xmlns="http://www.w3.org/2000/svg" p-id="1112" xmlns:xlink="http://www.w3.org/1999/xlink" width="200" height="200"><path d="M855.466667 501.333333c-17.066667 0-32 14.933333-32 32v198.4c0 70.4-59.733333 130.133333-130.133334 130.133334h-337.066666c-83.2 0-151.466667-66.133333-151.466667-149.333334V358.4c0-64 53.333333-117.333333 117.333333-117.333333h168.533334c17.066667 0 32-14.933333 32-32s-14.933333-32-32-32H322.133333C221.866667 177.066667 140.8 258.133333 140.8 358.4v352c0 117.333333 96 213.333333 215.466667 213.333333h337.066666c106.666667 0 194.133333-87.466667 194.133334-194.133333v-196.266667c0-17.066667-14.933333-32-32-32zM680.533333 256h81.066667l-302.933333 313.6a30.933333 30.933333 0 0 0 21.333333 53.333333c8.533333 0 17.066667-4.266667 23.466667-10.666666L808.533333 298.666667v89.6c0 17.066667 14.933333 32 32 32s32-14.933333 32-32V241.066667c0-27.733333-23.466667-51.2-51.2-51.2h-140.8c-17.066667 0-32 14.933333-32 32s14.933333 34.133333 32 34.133333z" fill="#000000" p-id="1113"></path></svg>